<?xml version="1.0" encoding="UTF-8"?>
<svg xmlns="http://www.w3.org/2000/svg"
     width="400" height="400"
     viewBox="0 0 200 200">

  <style>
    svg {
      background: #080000;
    }

    .rotate {
      transform-origin: 100px 100px;
      animation: spin 40s linear infinite;
    }

    @keyframes spin {
      from { transform: rotate(0deg); }
      to   { transform: rotate(360deg); }
    }

    .glow {
      filter: url(#glow);
      animation: pulse 3.5s ease-in-out infinite;
    }

    @keyframes pulse {
      0%, 100% { opacity: 0.45; }
      50%      { opacity: 1; }
    }

    .wobble {
      stroke-dasharray: 1 3;
    }
  </style>

  <defs>
    <filter id="glow" x="-50%" y="-50%" width="200%" height="200%">
      <feGaussianBlur stdDeviation="3" result="b" />
      <feColorMatrix in="b" type="matrix"
        values="
          1 0 0 0 0.4
          0 0 0 0 0
          0 0 0 0 0
          0 0 0 0.9 0" />
      <feMerge>
        <feMergeNode in="b" />
        <feMergeNode in="SourceGraphic" />
      </feMerge>
    </filter>
  </defs>

  <g class="rotate glow">

    <!-- Outer ritual ring -->
    <circle cx="100" cy="100" r="90"
            fill="none"
            stroke="#aa0000"
            stroke-width="3" />

    <!-- Inner grimoire ring -->
    <circle cx="100" cy="100" r="70"
            fill="none"
            stroke="#660000"
            stroke-width="2"
            class="wobble" />

    <!-- Pentagram (⛤-style, with micro wobble) -->
    <!-- Points are slightly nudged to feel hand-drawn but still symmetrical -->
    <path
      d="
        M 100 28
        L 118 74
        L 167 74
        L 127 103
        L 142 150
        L 100 125
        L 58 150
        L 73 103
        L 33 74
        L 82 74
        Z
      "
      fill="none"
      stroke="#dd0000"
      stroke-width="4"
      stroke-linejoin="round" />

    <!-- Hybrid runes around the circle -->
    <g fill="#dd0000" font-size="10" font-family="serif">
      <text x="100" y="12" text-anchor="middle">ᚱ</text>
      <text x="145" y="22" transform="rotate(30 145 22)">ᛗ</text>
      <text x="178" y="55" transform="rotate(60 178 55)">ᚨ</text>
      <text x="188" y="100" transform="rotate(90 188 100)">ᛃ</text>
      <text x="178" y="145" transform="rotate(120 178 145)">ᚾ</text>
      <text x="145" y="178" transform="rotate(150 145 178)">ᛟ</text>
      <text x="100" y="188" text-anchor="middle" transform="rotate(180 100 188)">ᚲ</text>
      <text x="55" y="178" transform="rotate(210 55 178)">ᛞ</text>
      <text x="22" y="145" transform="rotate(240 22 145)">ᚺ</text>
      <text x="12" y="100" transform="rotate(270 12 100)">ᛉ</text>
      <text x="22" y="55" transform="rotate(300 22 55)">ᚠ</text>
      <text x="55" y="22" transform="rotate(330 55 22)">ᛇ</text>
    </g>

  </g>
</svg>
